<svg width="15" height="12" viewBox="0 0 15 12" fill="none" xmlns="http://www.w3.org/2000/svg">
<g clip-path="url(#clip0_3_944)">
<path d="M7.19925 0L0.199219 3.84V9.59999L2.69921 12H11.6992L14.1992 9.59999V3.84L7.19925 0ZM13.1992 5.75999L9.80922 7.6224L12.3092 9.23999L12.0342 9.63838L8.99427 7.67999H5.42422L2.42422 9.63838L2.14423 9.23999L4.64421 7.6272L1.19922 5.75999V4.32001L7.19922 0.959999L13.1992 4.32001V5.75999ZM8.90426 2.88C8.42118 2.5636 7.84905 2.39614 7.26427 2.40001C6.51657 2.36267 5.7882 2.63538 5.26426 3.14881C4.84523 3.57466 4.61876 4.14238 4.63427 4.728C4.61997 5.11102 4.72251 5.48973 4.92926 5.81761C5.17008 6.1716 5.51953 6.44499 5.92926 6.60001C6.39239 6.76654 6.88491 6.8448 7.37925 6.8304C7.83196 6.83404 8.28351 6.78569 8.72426 6.6864C8.9291 6.63577 9.13106 6.5749 9.32926 6.504L9.13426 6.02398C8.95458 6.08782 8.77086 6.14072 8.58425 6.18239C8.19272 6.27107 7.79153 6.3146 7.38925 6.312C7.08563 6.32381 6.78169 6.29964 6.48423 6.24001C6.20183 6.18056 5.94114 6.04961 5.72923 5.86081C5.429 5.57241 5.27394 5.17311 5.30423 4.7664C5.28905 4.33154 5.44024 3.90639 5.72923 3.57121C6.11974 3.15488 6.68671 2.9322 7.26924 2.96641C7.74415 2.94721 8.21164 3.08441 8.59425 3.35521C8.93458 3.62157 9.12063 4.02885 9.09423 4.44962C9.10369 4.64608 9.06427 4.84187 8.97922 5.02082C8.90969 5.17192 8.75119 5.26703 8.57922 5.26081C8.48751 5.26943 8.39742 5.23338 8.33923 5.16482C8.29496 5.0717 8.27604 4.96929 8.28424 4.86721V3.6144H7.78422L7.75423 3.86399C7.7156 3.82562 7.67381 3.7903 7.62922 3.75838C7.46418 3.65156 7.26811 3.59778 7.06921 3.60478C6.8014 3.59817 6.54202 3.69501 6.3492 3.87357C6.14646 4.08636 6.04029 4.3679 6.05421 4.65596C6.04032 4.94403 6.14646 5.22556 6.3492 5.43836C6.54315 5.62584 6.80903 5.72828 7.08421 5.72155C7.36831 5.72609 7.64102 5.61439 7.83421 5.41434C7.87655 5.49177 7.93845 5.55778 8.01422 5.60634C8.16578 5.69076 8.33909 5.73236 8.51423 5.72635C8.68534 5.72586 8.85486 5.69494 9.01425 5.63516C9.17452 5.57205 9.31802 5.47528 9.43424 5.35197C9.65432 5.0781 9.76436 4.73732 9.74425 4.39197C9.74656 4.1292 9.69031 3.86897 9.57925 3.62877C9.42752 3.32608 9.19454 3.06764 8.90426 2.88ZM7.54923 5.07361C7.45214 5.17974 7.31133 5.23945 7.16422 5.23681C7.02311 5.24332 6.88735 5.18441 6.79922 5.07841C6.70461 4.95894 6.65841 4.81052 6.66921 4.66081C6.66018 4.51129 6.70619 4.36346 6.79922 4.24322C6.88778 4.14104 7.02086 4.08427 7.15922 4.08961C7.30805 4.08556 7.45101 4.14537 7.54923 4.25282C7.64564 4.37161 7.69362 4.52008 7.68424 4.67041C7.69044 4.81592 7.6426 4.95881 7.54923 5.07361Z" fill="#4C4C4C"/>
</g>
<defs>
<clipPath id="clip0_3_944">
<rect width="14" height="12" fill="white" transform="translate(0.199219)"/>
</clipPath>
</defs>
</svg>
