<svg width="118" height="35" viewBox="0 0 118 35" fill="none" xmlns="http://www.w3.org/2000/svg">
<path d="M117.387 30.8807C117.387 31.3212 117.3 31.7573 117.132 32.1642C116.963 32.5711 116.716 32.9408 116.405 33.2521C116.093 33.5634 115.723 33.8102 115.316 33.9785C114.91 34.1467 114.473 34.2331 114.033 34.2326H4.27551C3.38592 34.2335 2.53239 33.8809 1.90261 33.2524C1.27284 32.6238 0.918396 31.7707 0.917236 30.8807V4.15046C0.918395 3.26007 1.2727 2.40653 1.90235 1.77726C2.53199 1.14799 3.38552 0.794421 4.27551 0.794189H114.032C114.473 0.794189 114.909 0.881008 115.316 1.04969C115.723 1.21837 116.093 1.4656 116.404 1.77727C116.716 2.08894 116.963 2.45894 117.131 2.86614C117.3 3.27333 117.386 3.70975 117.386 4.15046L117.387 30.8807Z" fill="white"/>
<path d="M117.387 30.8807C117.387 31.3212 117.3 31.7573 117.132 32.1642C116.963 32.5711 116.716 32.9408 116.405 33.2521C116.093 33.5634 115.723 33.8102 115.316 33.9785C114.91 34.1467 114.473 34.2331 114.033 34.2326H4.27551C3.38592 34.2335 2.53239 33.8809 1.90261 33.2524C1.27284 32.6238 0.918396 31.7707 0.917236 30.8807V4.15046C0.918395 3.26007 1.2727 2.40653 1.90235 1.77726C2.53199 1.14799 3.38552 0.794421 4.27551 0.794189H114.032C114.473 0.794189 114.909 0.881008 115.316 1.04969C115.723 1.21837 116.093 1.4656 116.404 1.77727C116.716 2.08894 116.963 2.45894 117.131 2.86614C117.3 3.27333 117.386 3.70975 117.386 4.15046L117.387 30.8807Z" fill="white"/>
<path d="M26.4939 17.3296C26.4685 14.5089 28.8024 13.1366 28.9091 13.0728C27.5873 11.1448 25.5386 10.8813 24.8187 10.8603C23.098 10.6792 21.4289 11.8904 20.5524 11.8904C19.6583 11.8904 18.3086 10.8778 16.8538 10.9076C14.9818 10.9365 13.2305 12.0208 12.27 13.7046C10.2877 17.1379 11.7661 22.1833 13.6652 24.9584C14.6152 26.3184 15.7253 27.8351 17.1783 27.7817C18.5999 27.7239 19.1309 26.8759 20.8463 26.8759C22.546 26.8759 23.0446 27.7817 24.5265 27.7476C26.0521 27.7239 27.0126 26.3823 27.9294 25.0109C29.0272 23.454 29.4681 21.919 29.4856 21.8402C29.4506 21.8279 26.5236 20.7095 26.4939 17.3296ZM23.6946 9.03474C24.4591 8.07818 24.9822 6.7768 24.837 5.45618C23.7304 5.50519 22.3465 6.22195 21.5496 7.1575C20.8445 7.98191 20.2147 9.33317 20.3774 10.6039C21.6205 10.6967 22.8968 9.97642 23.6946 9.03474Z" fill="black"/>
<path d="M47.0838 27.5865H45.0971L44.0089 24.1654H40.2264L39.1898 27.5865H37.2556L41.004 15.9397H43.3187L47.0838 27.5865ZM43.6809 22.7302L42.6967 19.689C42.5926 19.3783 42.3967 18.6466 42.1098 17.4949H42.0748C41.9593 17.9903 41.7747 18.7219 41.5219 19.689L40.5544 22.7302H43.6809ZM56.7046 23.2841C56.7046 24.7124 56.3171 25.8414 55.5411 26.6702C54.8466 27.4079 53.9832 27.7764 52.9535 27.7764C51.8417 27.7764 51.0421 27.3799 50.5566 26.5853V30.9917H48.6916V21.9486C48.6916 21.0516 48.668 20.1318 48.6225 19.1884H50.2627L50.3668 20.5195H50.4018C51.0238 19.5166 51.9677 19.0151 53.2343 19.0151C54.2246 19.0151 55.0513 19.4063 55.7126 20.1896C56.3731 20.9746 56.7046 22.0055 56.7046 23.2841ZM54.8046 23.3524C54.8046 22.535 54.6209 21.8611 54.2517 21.3299C53.8484 20.7777 53.3069 20.5011 52.6281 20.5011C52.168 20.5011 51.7498 20.6551 51.3763 20.9588C51.0019 21.2651 50.757 21.6651 50.6424 22.1604C50.5912 22.3457 50.5621 22.5363 50.5558 22.7284V24.1296C50.5558 24.7396 50.743 25.255 51.1174 25.6769C51.4918 26.0969 51.9782 26.3079 52.5765 26.3079C53.279 26.3079 53.8257 26.0357 54.2167 25.4957C54.6086 24.954 54.8046 24.2398 54.8046 23.3524ZM66.3595 23.2841C66.3595 24.7124 65.972 25.8414 65.1961 26.6702C64.5006 27.4079 63.6381 27.7764 62.6076 27.7764C61.4958 27.7764 60.6962 27.3799 60.2107 26.5853V30.9917H58.3457V21.9486C58.3457 21.0516 58.3221 20.1318 58.2766 19.1884H59.9168L60.0209 20.5195H60.0559C60.677 19.5166 61.6209 19.0151 62.8884 19.0151C63.8778 19.0151 64.7045 19.4063 65.3675 20.1896C66.0271 20.9746 66.3595 22.0055 66.3595 23.2841ZM64.4586 23.3524C64.4586 22.535 64.2741 21.8611 63.9049 21.3299C63.5016 20.7777 62.9619 20.5011 62.2831 20.5011C61.8229 20.5011 61.4048 20.6551 61.0295 20.9588C60.6551 21.2651 60.411 21.6651 60.2964 22.1604C60.2396 22.3915 60.209 22.5796 60.209 22.7284V24.1296C60.209 24.7396 60.397 25.255 60.7697 25.6769C61.1441 26.0961 61.6305 26.3079 62.2306 26.3079C62.9339 26.3079 63.4806 26.0357 63.8708 25.4957C64.2627 24.954 64.4586 24.2398 64.4586 23.3524ZM77.1543 24.3195C77.1543 25.311 76.8079 26.1171 76.1195 26.7393C75.3619 27.4184 74.3043 27.7589 72.9484 27.7589C71.6957 27.7589 70.6915 27.5173 69.9339 27.0334L70.3652 25.4782C71.1831 25.963 72.0815 26.2046 73.0595 26.2046C73.7628 26.2046 74.3095 26.0453 74.6997 25.7294C75.0907 25.4126 75.2884 24.989 75.2884 24.4604C75.2884 23.9869 75.1248 23.5905 74.8038 23.2675C74.481 22.9455 73.9474 22.6453 73.1977 22.3696C71.1595 21.6091 70.1395 20.4967 70.1395 19.0335C70.1395 18.0778 70.4999 17.2954 71.2189 16.6836C71.938 16.0728 72.8915 15.7673 74.0777 15.7673C75.1371 15.7673 76.0197 15.952 76.7204 16.3204L76.2524 17.8415C75.5928 17.4844 74.8484 17.3059 74.0156 17.3059C73.3578 17.3059 72.8417 17.4678 72.4725 17.7898C72.162 18.0778 72.0045 18.4287 72.0045 18.8453C72.0045 19.3048 72.1838 19.6863 72.5407 19.9856C72.8504 20.2613 73.4155 20.5615 74.2326 20.8836C75.2351 21.2879 75.9716 21.7587 76.4431 22.2996C76.9181 22.8404 77.1543 23.5152 77.1543 24.3195ZM83.3364 20.5886H81.2807V24.666C81.2807 25.7031 81.6428 26.2203 82.3689 26.2203C82.7022 26.2203 82.9786 26.1923 83.1973 26.1337L83.2489 27.5506C82.8815 27.688 82.3978 27.7571 81.7985 27.7571C81.062 27.7571 80.4864 27.5322 80.0708 27.0824C79.6571 26.6325 79.4489 25.879 79.4489 24.8183V20.5851H78.2242V19.1849H79.4489V17.6472L81.2807 17.0941V19.1849H83.3364V20.5886ZM92.5933 23.3183C92.5933 24.6092 92.2242 25.669 91.4876 26.4978C90.7169 27.3511 89.6917 27.7764 88.4136 27.7764C87.1802 27.7764 86.1995 27.3677 85.4682 26.5511C84.7369 25.7329 84.3713 24.7019 84.3713 23.4583C84.3713 22.1569 84.7492 21.091 85.5023 20.2622C86.2573 19.4325 87.2738 19.0177 88.5518 19.0177C89.7835 19.0177 90.7729 19.4273 91.5217 20.2447C92.2373 21.0376 92.5933 22.0615 92.5933 23.3183ZM90.66 23.3612C90.66 22.5919 90.4938 21.932 90.1605 21.3798C89.7695 20.7129 89.2097 20.3795 88.4845 20.3795C87.7374 20.3795 87.1644 20.7129 86.7743 21.3798C86.4401 21.932 86.2739 22.6033 86.2739 23.3962C86.2739 24.1663 86.4401 24.8279 86.7743 25.3784C87.1775 26.0453 87.74 26.3787 88.4687 26.3787C89.1817 26.3787 89.7406 26.0383 90.1448 25.3618C90.4877 24.7964 90.66 24.1322 90.66 23.3612ZM98.6582 20.8293C98.4642 20.7943 98.2674 20.777 98.0703 20.7777C97.4142 20.7777 96.9068 21.0245 96.5499 21.5216C96.2403 21.9591 96.0846 22.5122 96.0846 23.18V27.5865H94.2195V21.8331C94.2212 20.9515 94.2031 20.07 94.1653 19.1892H95.7898L95.858 20.796H95.9096C96.1073 20.2438 96.417 19.7984 96.8421 19.4649C97.2313 19.1736 97.7041 19.0158 98.1901 19.0151C98.3625 19.0151 98.5182 19.0273 98.6564 19.0492L98.6582 20.8293ZM106.999 22.9901C107.004 23.2737 106.981 23.5572 106.931 23.8364H101.336C101.357 24.666 101.628 25.3014 102.148 25.739C102.619 26.1293 103.229 26.3254 103.978 26.3254C104.806 26.3254 105.562 26.1941 106.242 25.9289L106.534 27.2233C105.74 27.5698 104.802 27.7423 103.72 27.7423C102.418 27.7423 101.396 27.3589 100.653 26.594C99.9108 25.8283 99.5391 24.7991 99.5391 23.5099C99.5391 22.2444 99.8846 21.1899 100.577 20.3488C101.301 19.4509 102.28 19.002 103.511 19.002C104.721 19.002 105.637 19.4509 106.259 20.3488C106.752 21.0603 106.999 21.9425 106.999 22.9901ZM105.221 22.5061C105.234 21.9521 105.111 21.4752 104.859 21.0717C104.536 20.5519 104.039 20.2928 103.373 20.2928C102.763 20.2928 102.267 20.5457 101.889 21.0533C101.578 21.4568 101.394 21.9416 101.337 22.5044L105.221 22.5061Z" fill="black"/>
<path d="M39.6882 11.8222C39.1695 11.8222 38.7207 11.7968 38.3472 11.7539V6.12307C38.8696 6.04233 39.3975 6.00253 39.9261 6.00404C42.065 6.00404 43.05 7.05687 43.05 8.77308C43.05 10.7527 41.8865 11.8222 39.6882 11.8222ZM40.0014 6.72606C39.7127 6.72606 39.4669 6.74356 39.2631 6.78557V11.066C39.3733 11.0835 39.585 11.0914 39.8824 11.0914C41.2838 11.0914 42.0816 10.2932 42.0816 8.79846C42.0816 7.46558 41.3599 6.72606 40.0014 6.72606ZM46.1196 11.865C44.9141 11.865 44.133 10.9645 44.133 9.74189C44.133 8.46764 44.9308 7.55922 46.1878 7.55922C47.3758 7.55922 48.1744 8.41688 48.1744 9.6745C48.1744 10.9645 47.3513 11.865 46.1196 11.865ZM46.1546 8.2296C45.4924 8.2296 45.0681 8.84922 45.0681 9.71563C45.0681 10.5654 45.5011 11.185 46.1458 11.185C46.7905 11.185 47.2236 10.5225 47.2236 9.69813C47.2236 8.85797 46.7993 8.2296 46.1546 8.2296ZM55.0485 7.64411L53.7582 11.7714H52.9175L52.383 9.97906C52.2501 9.54064 52.1395 9.09578 52.0515 8.64618H52.034C51.9666 9.09602 51.8389 9.54673 51.7033 9.97906L51.1347 11.7714H50.2853L49.0711 7.64411H50.0132L50.4804 9.60624C50.5906 10.0736 50.6833 10.5147 50.7603 10.9312H50.7778C50.8451 10.5838 50.9554 10.1497 51.1172 9.61499L51.7033 7.64499H52.4504L53.0111 9.57298C53.1467 10.0403 53.2569 10.4989 53.3426 10.9321H53.3671C53.4266 10.5077 53.5202 10.0569 53.6471 9.57298L54.1483 7.64499L55.0485 7.64411ZM59.7985 11.7714H58.8817V9.40145C58.8817 8.67156 58.6018 8.30574 58.0498 8.30574C57.5066 8.30574 57.1331 8.77308 57.1331 9.31656V11.7714H56.2163V8.82384C56.2163 8.45889 56.2075 8.06769 56.1822 7.64323H56.9887L57.0316 8.28036H57.0569C57.3036 7.83927 57.804 7.55922 58.3647 7.55922C59.2308 7.55922 59.7994 8.22172 59.7994 9.29993L59.7985 11.7714ZM62.3266 11.7714H61.409V5.75024H62.3266V11.7714ZM65.6692 11.865C64.4646 11.865 63.6825 10.9645 63.6825 9.74189C63.6825 8.46764 64.4803 7.55922 65.7365 7.55922C66.9253 7.55922 67.7231 8.41688 67.7231 9.6745C67.724 10.9645 66.9 11.865 65.6692 11.865ZM65.7033 8.2296C65.0411 8.2296 64.6168 8.84922 64.6168 9.71563C64.6168 10.5654 65.0507 11.185 65.6936 11.185C66.3392 11.185 66.7714 10.5225 66.7714 9.69813C66.7722 8.85797 66.3489 8.2296 65.7033 8.2296ZM71.3377 11.7714L71.2712 11.2962H71.2467C70.9668 11.6786 70.5583 11.865 70.0404 11.865C69.3012 11.865 68.7764 11.3469 68.7764 10.6503C68.7764 9.63162 69.659 9.10477 71.1873 9.10477V9.02863C71.1873 8.48515 70.8995 8.21297 70.3308 8.21297C69.9241 8.21297 69.5672 8.31536 69.2531 8.51928L69.0668 7.91629C69.4482 7.67824 69.9241 7.55922 70.4831 7.55922C71.5608 7.55922 72.1049 8.12808 72.1049 9.26667V10.7868C72.1049 11.2034 72.1233 11.5264 72.1644 11.7723L71.3377 11.7714ZM71.2118 9.71563C70.1935 9.71563 69.6826 9.96243 69.6826 10.5479C69.6826 10.9811 69.9459 11.1929 70.3116 11.1929C70.7779 11.1929 71.2118 10.8367 71.2118 10.3528V9.71563ZM76.5567 11.7714L76.5138 11.1089H76.4884C76.2251 11.6095 75.7825 11.865 75.164 11.865C74.1694 11.865 73.4328 10.9899 73.4328 9.75852C73.4328 8.46764 74.1965 7.55834 75.2392 7.55834C75.7912 7.55834 76.1822 7.74475 76.4027 8.11933H76.4211V5.75024H77.3387V10.6591C77.3387 11.0581 77.3483 11.4318 77.3728 11.7714H76.5567ZM76.4211 9.34281C76.4211 8.7652 76.0388 8.27248 75.4553 8.27248C74.7756 8.27248 74.3601 8.87547 74.3601 9.72439C74.3601 10.5567 74.7914 11.1264 75.4369 11.1264C76.0134 11.1264 76.4211 10.6249 76.4211 10.0307V9.34281ZM83.1569 11.865C81.9523 11.865 81.1711 10.9645 81.1711 9.74189C81.1711 8.46764 81.9689 7.55922 83.2251 7.55922C84.4139 7.55922 85.2117 8.41688 85.2117 9.6745C85.2126 10.9645 84.3894 11.865 83.1569 11.865ZM83.191 8.2296C82.5296 8.2296 82.1054 8.84922 82.1054 9.71563C82.1054 10.5654 82.5384 11.185 83.1822 11.185C83.8278 11.185 84.26 10.5225 84.26 9.69813C84.2617 8.85797 83.8374 8.2296 83.191 8.2296ZM90.142 11.7714H89.2243V9.40145C89.2243 8.67156 88.9444 8.30574 88.3924 8.30574C87.8492 8.30574 87.4765 8.77308 87.4765 9.31656V11.7714H86.5589V8.82384C86.5589 8.45889 86.5501 8.06769 86.5248 7.64323H87.3313L87.3742 8.28036H87.3995C87.6454 7.83927 88.1466 7.55834 88.7065 7.55834C89.5725 7.55834 90.142 8.22085 90.142 9.29905V11.7714ZM96.3101 8.33199H95.3014V10.3361C95.3014 10.8464 95.4781 11.101 95.835 11.101C95.9969 11.101 96.1325 11.0835 96.2418 11.0581L96.2672 11.7548C96.0896 11.823 95.8517 11.8572 95.556 11.8572C94.8334 11.8572 94.4013 11.4581 94.4013 10.4131V8.33199H93.7994V7.64411H94.4013V6.88796L95.3014 6.61579V7.64323H96.3101V8.33199ZM101.163 11.7714H100.247V9.41895C100.247 8.68031 99.9684 8.30661 99.4155 8.30661C98.9405 8.30661 98.4979 8.62955 98.4979 9.2833V11.7714H97.582V5.75024H98.4979V8.2296H98.5162C98.8049 7.77976 99.2231 7.55834 99.7567 7.55834C100.63 7.55834 101.163 8.23747 101.163 9.31656V11.7714ZM106.136 9.9283H103.384C103.402 10.7098 103.919 11.1509 104.684 11.1509C105.091 11.1509 105.465 11.0826 105.796 10.9557L105.939 11.5929C105.549 11.7627 105.089 11.8475 104.555 11.8475C103.265 11.8475 102.501 11.0319 102.501 9.76727C102.501 8.50177 103.283 7.55047 104.452 7.55047C105.506 7.55047 106.167 8.33199 106.167 9.5126C106.173 9.65192 106.162 9.79146 106.136 9.9283ZM105.295 9.27455C105.295 8.63743 104.974 8.18759 104.388 8.18759C103.861 8.18759 103.445 8.64618 103.385 9.27455H105.295Z" fill="black"/>
</svg>
