<svg width="58" height="58" viewBox="0 0 58 58" fill="none" xmlns="http://www.w3.org/2000/svg">
<rect width="58" height="58" fill="black"/>
<path fill-rule="evenodd" clip-rule="evenodd" d="M21.0462 25.9977V20H14V22.9988H18.0264V31.9953L21.0462 37.993L40.1716 31.9953V25.9977H21.0462ZM23.5605 39.004C22.1706 39.004 21.044 40.1229 21.044 41.503C21.044 42.8831 22.1707 44.002 23.5605 44.002C24.9502 44.002 26.0769 42.8831 26.0769 41.503C26.0769 40.1229 24.9503 39.004 23.5605 39.004ZM32.1208 41.503C32.1208 40.1229 33.2474 39.004 34.6373 39.004C36.027 39.004 37.1537 40.1229 37.1537 41.503C37.1537 42.8831 36.0271 44.002 34.6373 44.002C33.2475 44.002 32.1208 42.8831 32.1208 41.503Z" fill="#FDFDFD"/>
<circle cx="38.5" cy="22.5" r="7.5" fill="#DA291C" stroke="black" stroke-width="2"/>
<path d="M38.0813 26H39.2713V18.8H38.4713L36.2513 19.62V20.61L38.0813 19.98V26Z" fill="white"/>
</svg>
