<svg width="112" height="34" viewBox="0 0 112 34" fill="none" xmlns="http://www.w3.org/2000/svg">
<path d="M107.852 33.1865H4.14815C1.82519 33.1865 0 31.3613 0 29.0382V4.14831C0 1.82526 1.82519 0 4.14815 0H107.852C110.175 0 112 1.82526 112 4.14831V29.0382C112 31.3613 110.175 33.1865 107.852 33.1865Z" fill="white"/>
<path d="M39.3245 8.46256C39.3245 9.12629 39.1585 9.70705 38.7437 10.1219C38.2459 10.6197 37.6652 10.8686 36.9185 10.8686C36.1719 10.8686 35.5911 10.6197 35.0933 10.1219C34.5956 9.62408 34.3467 9.04332 34.3467 8.29662C34.3467 7.54993 34.5956 6.96916 35.0933 6.47137C35.5911 5.97357 36.1719 5.72467 36.9185 5.72467C37.2504 5.72467 37.5822 5.80764 37.9141 5.97357C38.2459 6.1395 38.4948 6.30543 38.6608 6.55433L38.2459 6.96916C37.9141 6.55433 37.4993 6.3884 36.9185 6.3884C36.4208 6.3884 35.923 6.55433 35.5911 6.96916C35.1763 7.30103 35.0104 7.79883 35.0104 8.37959C35.0104 8.96035 35.1763 9.45815 35.5911 9.79002C36.0059 10.1219 36.4208 10.3708 36.9185 10.3708C37.4993 10.3708 37.9141 10.2048 38.3289 9.79002C38.5778 9.54112 38.7437 9.20925 38.7437 8.79442H36.9185V8.13069H39.3245V8.46256ZM43.1408 6.3884H40.9008V7.96476H42.9748V8.54552H40.9008V10.1219H43.1408V10.7856H40.237V5.80764H43.1408V6.3884ZM45.8785 10.7856H45.2148V6.3884H43.8045V5.80764H47.2889V6.3884H45.8785V10.7856ZM49.6948 10.7856V5.80764H50.3585V10.7856H49.6948ZM53.1793 10.7856H52.5156V6.3884H51.1052V5.80764H54.5067V6.3884H53.0963V10.7856H53.1793ZM61.0608 10.1219C60.563 10.6197 59.9822 10.8686 59.2356 10.8686C58.4889 10.8686 57.9082 10.6197 57.4104 10.1219C56.9126 9.62408 56.6637 9.04332 56.6637 8.29662C56.6637 7.54993 56.9126 6.96916 57.4104 6.47137C57.9082 5.97357 58.4889 5.72467 59.2356 5.72467C59.9822 5.72467 60.563 5.97357 61.0608 6.47137C61.5585 6.96916 61.8074 7.54993 61.8074 8.29662C61.8074 9.04332 61.5585 9.62408 61.0608 10.1219ZM57.9082 9.70705C58.24 10.0389 58.7378 10.2878 59.2356 10.2878C59.7333 10.2878 60.2311 10.1219 60.563 9.70705C60.8948 9.37519 61.1437 8.87739 61.1437 8.29662C61.1437 7.71586 60.9778 7.21806 60.563 6.8862C60.2311 6.55433 59.7333 6.30543 59.2356 6.30543C58.7378 6.30543 58.24 6.47137 57.9082 6.8862C57.5763 7.21806 57.3274 7.71586 57.3274 8.29662C57.3274 8.87739 57.4934 9.37519 57.9082 9.70705ZM62.72 10.7856V5.80764H63.4667L65.8726 9.70705V5.80764H66.5363V10.7856H65.8726L63.3008 6.72027V10.7856H62.72Z" fill="black"/>
<path d="M56.4977 18.0867C54.5065 18.0867 52.9302 19.5801 52.9302 21.6543C52.9302 23.6455 54.5065 25.2218 56.4977 25.2218C58.4888 25.2218 60.0651 23.7284 60.0651 21.6543C60.0651 19.4972 58.4888 18.0867 56.4977 18.0867ZM56.4977 23.7284C55.4191 23.7284 54.5065 22.8158 54.5065 21.5713C54.5065 20.3268 55.4191 19.4142 56.4977 19.4142C57.5762 19.4142 58.4888 20.2439 58.4888 21.5713C58.4888 22.8158 57.5762 23.7284 56.4977 23.7284ZM48.7821 18.0867C46.791 18.0867 45.2147 19.5801 45.2147 21.6543C45.2147 23.6455 46.791 25.2218 48.7821 25.2218C50.7732 25.2218 52.3495 23.7284 52.3495 21.6543C52.3495 19.4972 50.7732 18.0867 48.7821 18.0867ZM48.7821 23.7284C47.7036 23.7284 46.791 22.8158 46.791 21.5713C46.791 20.3268 47.7036 19.4142 48.7821 19.4142C49.8606 19.4142 50.7732 20.2439 50.7732 21.5713C50.7732 22.8158 49.8606 23.7284 48.7821 23.7284ZM39.5732 19.1653V20.6587H43.1406C43.0577 21.4883 42.7258 22.1521 42.311 22.5669C41.8132 23.0647 40.9836 23.6455 39.5732 23.6455C37.3332 23.6455 35.674 21.9032 35.674 19.6631C35.674 17.423 37.4162 15.6807 39.5732 15.6807C40.7347 15.6807 41.6473 16.1785 42.311 16.7593L43.3895 15.6807C42.4769 14.851 41.3154 14.1873 39.6562 14.1873C36.6695 14.1873 34.0977 16.6763 34.0977 19.6631C34.0977 22.6499 36.6695 25.1389 39.6562 25.1389C41.3154 25.1389 42.4769 24.6411 43.4725 23.5625C44.468 22.5669 44.7999 21.1565 44.7999 20.0779C44.7999 19.7461 44.7999 19.4142 44.7169 19.1653H39.5732ZM77.2384 20.3268C76.9065 19.4972 76.0769 18.0867 74.2517 18.0867C72.4265 18.0867 70.9332 19.4972 70.9332 21.6543C70.9332 23.6455 72.4265 25.2218 74.4176 25.2218C75.9939 25.2218 76.9895 24.2262 77.3214 23.6455L76.1599 22.8158C75.7451 23.3966 75.2473 23.8114 74.4176 23.8114C73.588 23.8114 73.0902 23.4795 72.6754 22.7328L77.4043 20.7417L77.2384 20.3268ZM72.4265 21.4883C72.4265 20.1609 73.5051 19.4142 74.2517 19.4142C74.8325 19.4142 75.4132 19.7461 75.5791 20.1609L72.4265 21.4883ZM68.5273 24.89H70.1036V14.5192H68.5273V24.89ZM66.0384 18.8334C65.6236 18.4186 64.9599 18.0038 64.1302 18.0038C62.388 18.0038 60.7288 19.5801 60.7288 21.5713C60.7288 23.5625 62.3051 25.0559 64.1302 25.0559C64.9599 25.0559 65.6236 24.6411 65.9554 24.2262H66.0384V24.724C66.0384 26.0515 65.2917 26.7982 64.1302 26.7982C63.2177 26.7982 62.5539 26.1345 62.388 25.5537L61.0606 26.1345C61.4754 27.0471 62.471 28.2086 64.2132 28.2086C66.0384 28.2086 67.5317 27.1301 67.5317 24.5581V18.2527H66.0384V18.8334ZM64.2132 23.7284C63.1347 23.7284 62.2221 22.8158 62.2221 21.5713C62.2221 20.3268 63.1347 19.4142 64.2132 19.4142C65.2917 19.4142 66.1214 20.3268 66.1214 21.5713C66.1214 22.8158 65.2917 23.7284 64.2132 23.7284ZM84.4562 14.5192H80.7228V24.89H82.2991V20.9906H84.4562C86.1984 20.9906 87.8576 19.7461 87.8576 17.7549C87.8576 15.7637 86.1984 14.5192 84.4562 14.5192ZM84.5391 19.4972H82.2991V15.9296H84.5391C85.7006 15.9296 86.3643 16.9252 86.3643 17.6719C86.2813 18.5845 85.6176 19.4972 84.5391 19.4972ZM94.0799 18.0038C92.9184 18.0038 91.7569 18.5016 91.3421 19.5801L92.7525 20.1609C93.0843 19.5801 93.5821 19.4142 94.1628 19.4142C94.9925 19.4142 95.7391 19.912 95.8221 20.7417V20.8246C95.5732 20.6587 94.9095 20.4098 94.2458 20.4098C92.7525 20.4098 91.2591 21.2394 91.2591 22.7328C91.2591 24.1433 92.5036 25.0559 93.831 25.0559C94.9095 25.0559 95.4073 24.5581 95.8221 24.0603H95.905V24.89H97.3984V20.9076C97.2325 19.0823 95.8221 18.0038 94.0799 18.0038ZM93.9139 23.7284C93.4162 23.7284 92.6695 23.4795 92.6695 22.8158C92.6695 21.9861 93.5821 21.7372 94.3288 21.7372C94.9925 21.7372 95.3243 21.9032 95.7391 22.0691C95.5732 23.0647 94.7436 23.7284 93.9139 23.7284ZM102.625 18.2527L100.883 22.7328H100.8L98.9747 18.2527H97.3154L100.053 24.5581L98.4769 28.0427H100.053L104.284 18.2527H102.625ZM88.6873 24.89H90.2636V14.5192H88.6873V24.89Z" fill="black"/>
<path d="M8.62824 6.22241C8.37935 6.47131 8.29639 6.88614 8.29639 7.38394V25.7195C8.29639 26.2173 8.46231 26.6321 8.7112 26.881L8.79416 26.964L19.0816 16.6762V16.5102L8.62824 6.22241Z" fill="url(#paint0_linear_3_1687)"/>
<path d="M22.4 20.1608L18.9985 16.7592V16.5103L22.4 13.1086L22.483 13.1916L26.5482 15.5147C27.7096 16.1784 27.7096 17.257 26.5482 17.9207L22.4 20.1608Z" fill="url(#paint1_linear_3_1687)"/>
<path d="M22.483 20.0777L18.9985 16.5931L8.62817 26.9639C9.04299 27.3788 9.62373 27.3788 10.3704 27.0469L22.483 20.0777Z" fill="url(#paint2_linear_3_1687)"/>
<path d="M22.483 13.1086L10.3704 6.22244C9.62373 5.80761 9.04299 5.89057 8.62817 6.3054L18.9985 16.5932L22.483 13.1086Z" fill="url(#paint3_linear_3_1687)"/>
<path opacity="0.2" d="M22.4 19.9948L10.3704 26.798C9.70669 27.2129 9.12595 27.1299 8.71114 26.798L8.62817 26.881L8.71114 26.964C9.12595 27.2958 9.70669 27.3788 10.3704 26.964L22.4 19.9948Z" fill="black"/>
<path opacity="0.2" d="M8.62824 26.798C8.37935 26.5491 8.29639 26.1343 8.29639 25.6365V25.7194C8.29639 26.2172 8.46231 26.6321 8.7112 26.881V26.798H8.62824ZM26.5482 17.6717L22.4001 19.9948L22.4831 20.0777L26.5482 17.7547C27.129 17.4228 27.3779 17.008 27.3779 16.5931C27.3779 17.008 27.046 17.3398 26.5482 17.6717Z" fill="black"/>
<path opacity="0.2" d="M10.3705 6.30543L26.5482 15.5147C27.046 15.8466 27.3779 16.1784 27.3779 16.5932C27.3779 16.1784 27.129 15.7636 26.5482 15.4317L10.3705 6.22246C9.20898 5.55873 8.29639 6.05653 8.29639 7.38399V7.46696C8.29639 6.22246 9.20898 5.6417 10.3705 6.30543Z" fill="white"/>
<defs>
<linearGradient id="paint0_linear_3_1687" x1="18.086" y1="7.2263" x2="4.16178" y2="21.1491" gradientUnits="userSpaceOnUse">
<stop stop-color="#00A0FF"/>
<stop offset="0.007" stop-color="#00A1FF"/>
<stop offset="0.26" stop-color="#00BEFF"/>
<stop offset="0.512" stop-color="#00D2FF"/>
<stop offset="0.76" stop-color="#00DFFF"/>
<stop offset="1" stop-color="#00E3FF"/>
</linearGradient>
<linearGradient id="paint1_linear_3_1687" x1="28.0697" y1="16.5941" x2="7.99517" y2="16.5941" gradientUnits="userSpaceOnUse">
<stop stop-color="#FFE000"/>
<stop offset="0.409" stop-color="#FFBD00"/>
<stop offset="0.775" stop-color="#FFA500"/>
<stop offset="1" stop-color="#FF9C00"/>
</linearGradient>
<linearGradient id="paint2_linear_3_1687" x1="20.5972" y1="18.498" x2="1.71577" y2="37.3788" gradientUnits="userSpaceOnUse">
<stop stop-color="#FF3A44"/>
<stop offset="1" stop-color="#C31162"/>
</linearGradient>
<linearGradient id="paint3_linear_3_1687" x1="6.05383" y1="0.145988" x2="14.4857" y2="8.57751" gradientUnits="userSpaceOnUse">
<stop stop-color="#32A071"/>
<stop offset="0.069" stop-color="#2DA771"/>
<stop offset="0.476" stop-color="#15CF74"/>
<stop offset="0.801" stop-color="#06E775"/>
<stop offset="1" stop-color="#00F076"/>
</linearGradient>
</defs>
</svg>
