<svg width="40" height="25" viewBox="0 0 40 25" fill="none" xmlns="http://www.w3.org/2000/svg">
<g clip-path="url(#clip0_3_1844)">
<path d="M39.3997 15.5011C38.3838 14.6562 36.7549 15.3939 36.2537 16.0128C36.2537 16.0128 36.8103 14.5782 36.0478 14.2966C34.2801 13.6417 33.3982 17.6675 33.2642 18.0613C33.1534 18.3868 33.0107 18.7317 32.863 19.0806C32.8436 19.1225 32.1161 20.6974 30.2872 20.6185C28.434 20.5385 29.3635 18.4092 29.3635 18.4092C29.3635 18.4092 31.849 18.7532 33.0272 17.2972C34.6492 15.2916 33.1816 13.5754 31.4586 13.4224C30.1347 13.3045 26.8159 14.8043 26.9373 19.3184C26.9427 19.5398 26.9628 19.7605 26.9975 19.9792C26.7751 20.063 26.5012 20.1136 26.303 19.9792C25.9145 19.7073 26.1525 18.5076 26.5255 17.2358C26.7421 16.4971 27.0412 15.0353 27.487 13.7275C27.7367 13.7949 27.9938 13.8306 28.2524 13.8337C28.974 13.821 29.3771 12.8338 27.9853 12.5024C28.1443 12.163 28.3524 11.8491 28.603 11.5708C28.7924 11.9606 29.315 12.8085 30.328 13.0258C30.6073 13.0837 30.8944 13.0933 31.1769 13.054C33.1437 12.7948 33.9936 9.60708 34.3947 7.3588C32.0782 6.95242 28.7176 6.66103 27.7901 8.36161C27.0451 9.73084 27.9591 10.835 28.3447 11.2151C28.1504 11.4197 27.4783 12.1107 27.3083 11.8973C27.1228 11.6643 26.8227 9.64119 26.373 8.34699C27.1364 8.04586 28.7613 7.15999 28.6069 5.09396C28.4126 2.40421 23.9866 0.830324 20.8192 0.00585938C20.0364 3.0864 19.2798 7.61511 21.6225 9.08082C21.9576 9.29435 22.3269 9.44831 22.7142 9.53593C24.2401 9.87313 25.4648 8.93172 25.8359 8.60329C26.1468 9.73664 26.1957 10.9263 25.9786 12.0814C25.0443 11.9343 24.2303 11.9284 24.0643 12.3816C23.7797 13.1515 24.2041 13.1973 25.6047 13.3669C25.2074 14.4535 24.5023 16.31 24.1682 17.9472C23.8195 16.9347 22.8764 16.1989 22.4918 15.7935C21.8779 15.1483 22.0129 13.9808 22.958 14.0481C23.8321 14.1104 23.2134 15.5265 23.2134 15.5265C23.2134 15.5265 24.3391 14.9417 24.0983 13.7801C23.9467 13.0472 23.3708 12.5317 22.1615 12.6106C21.1446 12.674 20.0859 13.4585 20.0247 14.5285C19.8897 16.77 22.2587 17.5779 22.0809 19.0358C21.9032 20.4937 20.3928 20.2053 20.2598 19.4958C20.1267 18.7863 20.6269 18.3263 21.4136 18.263C21.4136 18.263 21.4224 17.3684 20.4171 17.3576C20.1102 17.376 19.8123 17.4686 19.5488 17.6276C20.0072 15.4456 19.137 13.2158 17.6684 12.978C16.2853 12.7539 15.4121 14.0149 15.4121 14.0149C15.4121 14.0149 15.6404 12.5531 14.2884 12.5824C13.7921 12.5921 13.5211 12.9439 13.3725 13.3152C13.2394 13.5803 12.915 14.1212 12.3497 14.4379C12.1576 14.1327 11.8888 13.8837 11.5703 13.7159C11.2518 13.548 10.8948 13.4673 10.5354 13.4819C7.89545 13.5511 7.34182 16.4494 7.34182 16.4494C7.34182 16.4494 6.91738 18.3682 7.40301 19.7628C7.17185 20.4733 6.28605 21.0765 6.64251 19.5893C6.89504 18.5368 7.97801 14.8531 5.26718 14.4905C3.40428 14.241 2.97012 15.8714 2.94486 15.9728C2.99051 15.7837 4.3435 10.0797 1.44522 10.1402C-1.63372 10.2035 0.819715 23.394 3.10804 22.6367C4.28328 22.2469 3.74908 20.0474 3.32463 18.8536C2.71953 17.1471 3.0653 15.8325 3.77336 16.3811C4.48142 16.9298 3.22653 22.1631 5.70134 22.1095C6.964 22.0822 7.64389 21.2461 7.95858 20.673C8.33252 21.0317 8.87158 21.2392 9.64277 21.1759C11.2551 21.0443 12.071 19.9792 12.4099 18.8692C12.9752 17.0175 12.6498 15.7038 12.6508 15.7038C12.6518 15.7038 12.815 15.6161 13.0519 15.466C12.7916 18.3507 12.407 25.0936 14.5089 24.9981C17.1808 24.8772 15.2023 20.4372 15.2023 20.4372C15.2023 20.4372 16.9963 22.1046 18.7349 19.5445C18.7582 19.5094 18.7796 19.4734 18.8029 19.4383C19.204 21.3182 22.8307 21.9166 23.9195 20.023C23.9467 19.9753 23.971 19.9256 23.9943 19.8817C24.0536 20.5161 24.2789 20.9898 24.7587 21.1749C25.9592 21.6398 26.8071 21.2928 27.2967 20.9225C28.434 23.0422 31.8772 21.2958 32.2715 20.6165C32.0277 21.4497 32.0336 22.167 32.7572 22.5188C33.5876 22.9213 34.4957 22.3376 34.894 21.3016C35.2368 20.4187 35.4408 19.3096 35.6215 18.5817C36.0838 16.7144 36.4956 16.3714 36.8783 16.7066C37.261 17.0419 36.6034 18.605 38.0788 18.6937C39.3803 18.7717 39.9601 17.8546 39.9893 16.9834C40.0184 16.4133 39.8018 15.8364 39.3997 15.5011ZM32.0268 15.5294C32.729 16.54 29.7336 17.2836 29.7336 17.2836C30.3027 15.9416 31.3206 14.5188 32.0268 15.5304V15.5294ZM11.1958 17.2251C11.0016 18.3556 10.3431 19.1849 9.73019 19.0767C9.11731 18.9686 8.78125 17.9667 8.97745 16.8353C9.17365 15.7038 9.83023 14.8745 10.4421 14.9836C11.054 15.0928 11.393 16.0956 11.1958 17.2251ZM16.7263 18.7434C15.3937 19.5231 15.2276 17.8361 15.2878 16.8265C15.2878 16.8265 15.5899 14.0003 16.8079 14.1056C18.0258 14.2108 18.0589 17.9619 16.7272 18.7434H16.7263Z" fill="white"/>
</g>
<defs>
<clipPath id="clip0_3_1844">
<rect width="40" height="25" fill="white"/>
</clipPath>
</defs>
</svg>
