<svg width="32" height="22" viewBox="0 0 32 22" fill="none" xmlns="http://www.w3.org/2000/svg">
<path d="M0 18.2817V3.09859L32 0V22L0 18.2817Z" fill="#DA2A1C"/>
<path d="M4.53672 8.532V12.276C4.53672 13.08 4.58472 13.548 4.70472 13.932C4.87272 14.508 5.22072 14.88 5.71272 15.024C5.90472 15.084 6.12072 15.108 6.33672 15.108C7.08072 15.108 7.45272 14.94 8.42472 14.16V15H9.84072V8.532H8.42472V12.828C7.66872 13.584 7.26072 13.824 6.73272 13.824C6.15672 13.824 5.96472 13.464 5.96472 12.36V8.532H4.53672ZM19.1824 12.78L19.9984 15H21.4984L18.1024 6.36H16.8064L13.4104 15H14.9104L15.7144 12.78H19.1824ZM18.7624 11.58H16.1464L17.4544 7.968L18.7624 11.58ZM24.8081 15H26.2361V6.36H25.2761L22.6121 7.344V8.532L24.8081 7.776V15Z" fill="white"/>
</svg>
