<svg width="50" height="67" viewBox="0 0 50 67" fill="none" xmlns="http://www.w3.org/2000/svg">
<rect x="3" y="7" width="46" height="46" fill="black"/>
<g filter="url(#filter0_d_3_1601)">
<g clip-path="url(#clip0_3_1601)">
<path d="M23.2805 25.7551C23.2805 23.8845 24.7894 22.3682 26.6507 22.3682C28.5119 22.3682 30.0208 23.8845 30.0208 25.7551V27.4486H31.7059V25.1906H31.1049C30.7773 22.7184 28.5175 20.9811 26.0575 21.3103C24.0464 21.5794 22.4642 23.1695 22.1964 25.1906H21.5953V27.4486H23.2804V25.7551H23.2805ZM24.4039 26.8841C24.383 28.076 24.6964 29.2497 25.3082 30.271H28.0156C28.6198 29.2475 28.9254 28.0738 28.8974 26.8841C28.9214 25.6933 28.6119 24.5197 28.0043 23.4971H25.297C24.6888 24.5195 24.3793 25.6932 24.4039 26.8841ZM30.5825 31.4H22.6851L21 37.0449H32.2676L30.5825 31.4Z" fill="white"/>
</g>
</g>
<defs>
<filter id="filter0_d_3_1601" x="0" y="0.269531" width="61.2676" height="65.7747" filterUnits="userSpaceOnUse" color-interpolation-filters="sRGB">
<feFlood flood-opacity="0" result="BackgroundImageFix"/>
<feColorMatrix in="SourceAlpha" type="matrix" values="0 0 0 0 0 0 0 0 0 0 0 0 0 0 0 0 0 0 127 0" result="hardAlpha"/>
<feOffset dx="4" dy="4"/>
<feGaussianBlur stdDeviation="12.5"/>
<feColorMatrix type="matrix" values="0 0 0 0 0.177188 0 0 0 0 0.287673 0 0 0 0 0.3375 0 0 0 0.14 0"/>
<feBlend mode="normal" in2="BackgroundImageFix" result="effect1_dropShadow_3_1601"/>
<feBlend mode="normal" in="SourceGraphic" in2="effect1_dropShadow_3_1601" result="shape"/>
</filter>
<clipPath id="clip0_3_1601">
<rect width="11.2676" height="15.7746" fill="white" transform="translate(21 21.2695)"/>
</clipPath>
</defs>
</svg>
